<svg xmlns="http://www.w3.org/2000/svg" viewBox="0 0 1934.58 2896"><defs><style>.cls-1,.cls-2{fill:#fff;}.cls-2{stroke:#fff;stroke-miterlimit:10;}</style></defs><title>logo_light_modes</title><g id="webAddress"><path class="cls-1" d="M1501.84,1329.87c-5.77,0-11.56-.14-17.41-.43-146.31-7.23-260.93-103.68-331.46-278.94-52-129.29-61.83-254.43-62.22-259.7a20.78,20.78,0,0,1,41.44-3.09c.09,1.23,9.84,124.77,59.67,248.13,65,160.83,164.09,245.65,294.62,252.1,88.51,4.38,166-29.72,230.17-101.33,126.76-141.38,159.22-379.25,155.64-401.7a20.78,20.78,0,1,1,40.77-8c6.73,33.66-27.13,277.09-159.69,430.89C1683.49,1288.85,1598.93,1329.87,1501.84,1329.87Z" transform="translate(-532.71 -52)"/><polygon class="cls-1" points="659.79 776.74 551.75 751.8 564.21 402.75 643.17 435.99 659.79 776.74"/><path class="cls-1" d="M1192.5,830.81a1.88,1.88,0,0,1-.47,0l-108-24.93a2.09,2.09,0,0,1-1.61-2.1l12.47-349.06a2.05,2.05,0,0,1,1-1.67,2.08,2.08,0,0,1,1.92-.17l79,33.25a2.07,2.07,0,0,1,1.27,1.81l16.63,340.75a2.08,2.08,0,0,1-.75,1.69A2,2,0,0,1,1192.5,830.81Zm-105.9-28.64,103.69,23.93-16.42-336.7-75-31.57Z" transform="translate(-532.71 -52)"/><polygon class="cls-1" points="1278.94 780.89 1386.98 755.96 1374.52 406.9 1295.57 440.15 1278.94 780.89"/><path class="cls-1" d="M1811.66,835a2.07,2.07,0,0,1-1.33-.48,2.1,2.1,0,0,1-.75-1.7l16.62-340.74a2.1,2.1,0,0,1,1.27-1.82l79-33.24a2.07,2.07,0,0,1,1.93.16,2.12,2.12,0,0,1,1,1.68l12.47,349.05a2.09,2.09,0,0,1-1.62,2.1l-108,24.94A2.4,2.4,0,0,1,1811.66,835Zm18.63-341.41-16.43,336.69,103.7-23.93L1905.26,462Z" transform="translate(-532.71 -52)"/><path class="cls-1" d="M1155.1,633.43l278.41,120.51s58.18,29.09,141.29,0C1657.26,725.08,1874,625.12,1874,625.12l-16.62-157.9L1470.91,658.36,1167,486.58Z" transform="translate(-532.71 -52)"/><path class="cls-1" d="M1501.52,768.85c-42.11,0-68.54-12.86-68.94-13.05L1154.27,635.34a2.09,2.09,0,0,1-1.24-2.08L1165,486.41a2.1,2.1,0,0,1,1.1-1.66,2.06,2.06,0,0,1,2,0L1471,656l385.47-190.67a2.07,2.07,0,0,1,1.92,0,2,2,0,0,1,1.06,1.6l16.62,157.9a2.06,2.06,0,0,1-1.19,2.11c-2.17,1-217.77,100.33-299.38,128.89A223.1,223.1,0,0,1,1501.52,768.85ZM1157.29,632.12l277,119.91c.68.34,58.54,28.39,139.77,0,78-27.32,279.16-119.62,297.65-128.12L1855.61,470.4,1471.83,660.23a2,2,0,0,1-1.94-.06L1168.84,490Z" transform="translate(-532.71 -52)"/><path class="cls-1" d="M1477.15,656.29,903.7,332.16,1474.4,79.45a78,78,0,0,1,63.58.18l570.79,256.69Z" transform="translate(-532.71 -52)"/><path class="cls-1" d="M1477.15,677.06a20.79,20.79,0,0,1-10.23-2.68L893.47,350.25a20.78,20.78,0,0,1,1.82-37.08L1466,60.45a98.9,98.9,0,0,1,80.52.23l570.78,256.69a20.78,20.78,0,0,1,.87,37.49l-631.63,320A20.69,20.69,0,0,1,1477.15,677.06ZM949.92,334.42l527.76,298.3,582.91-295.28L1529.46,98.58a57.27,57.27,0,0,0-46.65-.13Z" transform="translate(-532.71 -52)"/><circle class="cls-1" cx="427.08" cy="381.97" r="31.17"/><polygon class="cls-1" points="460.33 793.36 427.08 864 393.84 793.36 414.42 406.9 439.75 406.9 460.33 793.36"/><path class="cls-1" d="M959.8,918.08a2.08,2.08,0,0,1-1.88-1.19l-33.25-70.65a2.11,2.11,0,0,1-.19-1L945.05,458.8a2.08,2.08,0,0,1,2.08-2h25.34a2.07,2.07,0,0,1,2.07,2l20.58,386.45a2.12,2.12,0,0,1-.2,1l-33.24,70.65A2.1,2.1,0,0,1,959.8,918.08ZM928.65,845l31.15,66.17L990.94,845,970.5,461H949.1Z" transform="translate(-532.71 -52)"/><line class="cls-2" x1="427.08" y1="327.95" x2="427.08" y2="361.19"/><path class="cls-2" d="M959.8,415.27a2.08,2.08,0,0,1-2.08-2.07V380a2.08,2.08,0,1,1,4.15,0V413.2A2.07,2.07,0,0,1,959.8,415.27Z" transform="translate(-532.71 -52)"/><path class="cls-1" d="M1161.33,1283.75s-382.29,0-494.49,448.79H1419S1211.2,1445.82,1161.33,1283.75Z" transform="translate(-532.71 -52)"/><path class="cls-1" d="M1838.67,1279.6s398.92,8.31,494.49,452.94H1581S1838.67,1375.17,1838.67,1279.6Z" transform="translate(-532.71 -52)"/><path class="cls-1" d="M1373.26,1404.26s149.6,49.87,253.48,0c0,0,8.31,66.49-62.33,95.58l8.31,232.7H1431.44l8.31-228.55S1373.26,1462.44,1373.26,1404.26Z" transform="translate(-532.71 -52)"/><path class="cls-1" d="M2192.76,2873.2H813.63a148,148,0,0,1-146.58-124.41L534.7,1945.25a149,149,0,0,1,147-173.23H2328a139.23,139.23,0,0,1,137.47,161.34l-131.8,819.74A142.15,142.15,0,0,1,2192.76,2873.2Zm-1511-1059.63a107.47,107.47,0,0,0-106,124.93L708.05,2742a106.63,106.63,0,0,0,105.58,89.62H2192.76a100.8,100.8,0,0,0,99.93-85.15l131.8-819.73a97.68,97.68,0,0,0-96.45-113.2Z" transform="translate(-532.71 -52)"/><path class="cls-1" d="M2250.05,2948H750a20.78,20.78,0,1,1,0-41.55h1500.1a20.78,20.78,0,1,1,0,41.55Z" transform="translate(-532.71 -52)"/><path class="cls-1" d="M1500,2245.73a64.41,64.41,0,1,0,64.41,64.41A64.41,64.41,0,0,0,1500,2245.73Zm-16.13,105.68a10.76,10.76,0,0,1-6.37-2.16,6.33,6.33,0,0,0-2.27-1.13c-.46,0-1.37.79-3.64,2.5-.45.34-.91.79-1.36.79s-.57-.22-.57-.56V2322.2c0-.35.11-.8.57-.8s.56.45.68.8c2,9.09,5.57,23.53,12.27,23.53,2.17,0,3.3-2.38,3.3-5.91,0-7.62-3.41-15.92-9.89-29.56-6.14-13-8.41-21.6-8.41-29.9,0-10.8,4.66-14.21,10.46-14.21a11.26,11.26,0,0,1,6.37,2.62,4.08,4.08,0,0,0,1.7.68,6.27,6.27,0,0,0,2.61-1.83c1-.91,1.71-1.47,2.39-1.47s.8.56.8,1.25v28.19c0,.34-.23.57-.68.57s-.57-.34-.68-.8c-1.83-9.2-7.28-23.52-12.51-23.52-2.85,0-3.07,2.38-3.07,5.34,0,5.57,1.48,11.14,9.89,29,8,16.82,8.87,20.58,8.87,29.55C1494.33,2347.78,1488.07,2351.41,1483.87,2351.41Zm50.12-41.49-3.29,2.73a2.78,2.78,0,0,0-1.14,2.5v35.7a.53.53,0,0,1-.57.56,1.75,1.75,0,0,1-1.14-.45l-3.4-3.07a1.65,1.65,0,0,0-1.14-.45,1.85,1.85,0,0,0-1.14.45c-2.39,2.16-4.66,3.52-7.16,3.52-14.21,0-14.78-25.92-14.78-44.9,0-14,.57-40.36,14.55-40.36a10.91,10.91,0,0,1,7.16,2.62,3.66,3.66,0,0,0,1.71.68c.57,0,1.7-.8,2.84-1.83s1.7-1.47,2.27-1.47.8.79.8,1.94v27.27c0,.46-.23.8-.57.8s-.8-.46-1-1.14c-2.39-8.52-7.28-23.18-12.28-23.18-4.77,0-6.14,10.8-6.14,34.78,0,32.74,1.37,39.11,5.46,39.11,3.52,0,6-4.32,6-15.12v-15.46a3,3,0,0,0-1.25-2.5l-3.18-2.73a1.42,1.42,0,0,1-.57-1.14c0-.45.34-.68.91-.68h16.83c.45,0,.79.23.79.68S1534.33,2309.46,1534,2309.92Z" transform="translate(-532.71 -52)"/></g></svg>